<svg id="katman_1" data-name="katman 1" xmlns="http://www.w3.org/2000/svg" viewBox="0 0 405.889 405.889"><defs><style>.cls-1{fill:#e0effc;}.cls-2{fill:#33ace3;}.cls-3{fill:#163d82;}.cls-4{fill:#fff;}.cls-5{fill:#2e3439;}</style></defs><rect class="cls-1" width="405.889" height="405.889" rx="12"/><path class="cls-2" d="M293.562,114.512a72.087,72.087,0,0,0-13.151,1.286C262.655,81.687,228.674,58.625,189.7,58.625c-31.587,0-59.8,15.166-78.836,39.045a38.9,38.9,0,0,1,7.708.958c36.925,9.2,58.045,48.792,82.774,89.667,19.772,32.747,41.019,67.909,71.917,92.478h19.73c42.762,0,78.38-36.656,78.38-82.759S336.521,114.512,293.562,114.512Z"/><path class="cls-3" d="M214.871,188.3c-24.73-40.875-45.85-80.467-82.775-89.667a38.877,38.877,0,0,0-7.707-.958q-2.264-.09-4.548-.088c-47.14,0-85.32,41.015-85.32,91.582,0,50.607,38.18,91.61,85.32,91.61H286.787C255.889,256.2,234.643,221.042,214.871,188.3Z"/><polygon class="cls-4" points="160.81 252.37 178.383 252.37 202.944 188.653 226.786 252.37 244.567 252.37 285.364 140.558 257.726 140.558 235.215 203.452 211.46 140.558 194.661 140.558 170.471 204.172 147.987 140.558 120.525 140.558 160.81 252.37"/><path class="cls-5" d="M326.7,364.716h11.543v-21.2l19.534,21.2h14.329l-22.186-23.955,19.817-22.048h-14.5l-17,18.966V300.954H326.7Zm-42.454-2.706q5.349,3.721,14.525,3.721,10.105,0,15.263-4.44a13.563,13.563,0,0,0,5.158-10.613,10.989,10.989,0,0,0-3.72-8.837q-3.765-3.129-13.256-5.285t-11.1-3.34a2.623,2.623,0,0,1-1.183-2.156,2.813,2.813,0,0,1,1.352-2.41q2.031-1.309,6.723-1.311a9.975,9.975,0,0,1,5.729,1.395,6.937,6.937,0,0,1,2.728,4.018l11.2-2.073A15.351,15.351,0,0,0,311.5,321.8q-4.482-3-13.7-3-9.684,0-14.291,3.975a12.453,12.453,0,0,0-4.61,9.808,11.568,11.568,0,0,0,5.329,10.106q3.846,2.623,18.223,5.793a9.478,9.478,0,0,1,3.974,1.564,3.121,3.121,0,0,1,.845,2.242,3.773,3.773,0,0,1-1.564,3.17q-2.325,1.691-6.933,1.692a10.428,10.428,0,0,1-6.512-1.8,8.742,8.742,0,0,1-3.087-5.265l-11.923,1.819a17.138,17.138,0,0,0,7,10.105M237.3,335.964A15.089,15.089,0,0,1,241.539,330a13.824,13.824,0,0,1,8.47-2.706,13.084,13.084,0,0,1,7.814,2.41,11.589,11.589,0,0,1,4.511,6.258Zm36.616,6.893q0-11.418-6.808-18.372t-17.673-6.955a22.792,22.792,0,0,0-17.019,6.955q-6.786,6.956-6.786,17.483a23.239,23.239,0,0,0,6.808,17.1q6.806,6.827,17.632,6.827a27.238,27.238,0,0,0,12.049-2.473,22.948,22.948,0,0,0,8.71-7.632l-9.725-4.566a15.389,15.389,0,0,1-11.12,4.524,13.463,13.463,0,0,1-8.9-2.9,12.342,12.342,0,0,1-4.292-7.8h37.082Zm-70.252-10.951a13.439,13.439,0,0,1,3.582,9.724,13.837,13.837,0,0,1-3.582,9.915,11.89,11.89,0,0,1-9.018,3.784,11.671,11.671,0,0,1-8.871-3.847,13.78,13.78,0,0,1-3.6-9.81,13.636,13.636,0,0,1,3.539-9.7,11.667,11.667,0,0,1,8.892-3.784,12.039,12.039,0,0,1,9.06,3.721m3.074-8.118a21.16,21.16,0,0,0-6.715-4.694,19.43,19.43,0,0,0-7.77-1.564,20.051,20.051,0,0,0-15.288,6.806q-6.294,6.808-6.293,17.463a24.116,24.116,0,0,0,6.5,17.187,20.47,20.47,0,0,0,15.415,6.913,19,19,0,0,0,7.371-1.415,22.638,22.638,0,0,0,6.777-4.63v4.862h11.543V300.954H206.741ZM122.99,364.716h11.543V346.26a52.236,52.236,0,0,1,.506-9.333,12.512,12.512,0,0,1,3.48-6.483,8.5,8.5,0,0,1,6.011-2.344,7.211,7.211,0,0,1,4.534,1.414,7.5,7.5,0,0,1,2.572,4.119q.741,2.7.739,10.937v20.146h11.416v-30.4q0-7.95-4.011-12.009a15.79,15.79,0,0,0-11.61-4.777,17.211,17.211,0,0,0-6.524,1.293,27.744,27.744,0,0,0-7.113,4.605v-4.715H122.99Zm-19.865,0h11.543v-46H103.125Zm.586-62.789a7.1,7.1,0,0,0-2.15,5.2,7.422,7.422,0,0,0,2.172,5.39,7.074,7.074,0,0,0,5.249,2.22,6.976,6.976,0,0,0,5.143-2.178,7.214,7.214,0,0,0,2.151-5.264,7.308,7.308,0,0,0-2.172-5.328,7.291,7.291,0,0,0-10.393-.042m-54.93,62.789h7.23L66.117,338.5l9.809,26.215H83.24l16.787-46H88.654L79.393,344.59l-9.774-25.877H62.708l-9.953,26.173L43.5,318.713h-11.3Z"/></svg>