<svg id="katman_1" data-name="katman 1" xmlns="http://www.w3.org/2000/svg" viewBox="0 0 405.889 405.889"><defs><style>.cls-1{fill:#e0effc;}.cls-2{fill:#c6ced9;opacity:0.33;}.cls-3{fill:#33ace3;}.cls-4{fill:#163d82;}.cls-5{fill:#fff;}</style></defs><rect class="cls-1" x="-0.18" y="0.49" width="404.83" height="404.83" rx="12" transform="translate(0.523 -0.52) rotate(0.148)"/><path class="cls-2" d="M371.742,405.757l-212.207-.546S39.044,270.518,39.09,252.705l319.89-64.613,45.48,88.88-.248,96.482A32.482,32.482,0,0,1,371.742,405.757Z"/><path class="cls-3" d="M292.757,148.094a71.765,71.765,0,0,0-13.119,1.249c-17.623-34.068-51.456-57.157-90.333-57.257-31.5-.081-59.682,14.973-78.73,38.741a38.747,38.747,0,0,1,7.685.975c36.8,9.271,57.768,48.813,82.328,89.646,19.636,32.711,40.737,67.836,71.491,92.421l19.679.05c42.65.11,78.269-36.358,78.388-82.341S335.6,148.2,292.757,148.094Z"/><path class="cls-4" d="M214.082,221.483c-24.56-40.833-45.523-80.375-82.328-89.647a38.811,38.811,0,0,0-7.685-.974q-2.256-.1-4.535-.1c-47.017-.121-85.2,40.689-85.333,91.124-.13,50.474,37.846,91.469,84.863,91.59l166.511.429v0C254.819,289.319,233.719,254.194,214.082,221.483Z"/><polygon class="cls-5" points="159.999 285.251 177.525 285.296 202.186 221.809 225.802 285.42 243.536 285.466 284.514 174.051 256.948 173.98 234.335 236.652 210.803 173.862 194.048 173.818 169.757 237.204 147.496 173.699 120.105 173.628 159.999 285.251"/></svg>